<svg xmlns="http://www.w3.org/2000/svg" viewBox="0 0 32 32"><style>.icon-canvas-transparent{opacity:0;fill:#f6f6f6}.icon-vs-out{fill:#f6f6f6}.icon-vs-bg{fill:#424242}.icon-vs-red{fill:#e51400}.icon-vs-blue{fill:#1ba1e2}.icon-vso-lightgrey{fill:#bfbfbf}</style><path class="icon-canvas-transparent" d="M32 0v32H0V0h32z" id="canvas"/><path class="icon-vs-out" d="M32 2v29H0V0h17v2h15z" id="outline"/><g id="iconFg"><path class="icon-vs-blue" d="M13 4v4H4V4h9z"/><path class="icon-vso-lightgrey" d="M15 6h6v2h-6V6zm8 0v2h5V6h-5z"/></g><path class="icon-vs-bg" d="M15 4V2H2v27h28V4H15zm0 2h6v2h-6V6zM4 4h9v4H4V4zm24 23H4V10h24v17zm0-19h-5V6h5v2z" id="iconBg"/><g id="colorImportance"><path class="icon-vs-out" d="M24.559 19.271L24 17c-1 4-3 5-3 5 .488-1.181 1-9-6-12 0 0-7 8-7.324 15.415a6.939 6.939 0 0 0 .475 2.95c.375.957 1.974 3.554 3.85 3.628l8.324.007 1.654-1.038c4.521-3.719 2.669-11.339 2.58-11.691zm-8.693.413a16.605 16.605 0 0 1-.892-3.949c-.043-.567-.045-.958-.046-1.018-.021-.46-.021-.849-.013-1.124.016-.28.036-.449.038-.466l.079-.633c.973 1.316 2.492 4.113.834 7.19z"/><path class="icon-vs-red" d="M17.904 25.191C15.067 28.031 20.081 31 20.081 31h-2c-1.211 0-3.613-2.219-4.435-2.969-.454-.416-2.209-2.385-1.565-3.031-1.702 1.711-.182 6 2 6h-2c-1.231 0-2.643-2.09-3-3a5.975 5.975 0 0 1-.407-2.536l-.003-.066c-.103-3.794 2.875-8.804 4.406-11.12.085-.13.173-.26.262-.39.376-.554.622-.888.622-.888s-.025.197-.044.538c-.01.316-.01.73.012 1.222 0 .001.002.427.048 1.049a17.542 17.542 0 0 0 1.669 5.932C20.353 16.276 15.081 11 15.081 11c5.676 2.838 5 7.999 5 7.999 0 2.838-2.177 6.192-2.177 6.192zm5.685-5.675c0 2.838-2.84 5.676-2.84 5.676-2.838 2.84-.66 5.809-.66 5.809 5.68-2.839 3.5-11.485 3.5-11.485"/></g></svg>